<svg width="18" height="18" viewBox="0 0 18 18" fill="none" xmlns="http://www.w3.org/2000/svg">
<path fill-rule="evenodd" clip-rule="evenodd" d="M12.5509 2.88375V1.59375H11.4259V5.00625H10.6759V2.88375H6.94836V1.59375H5.82336V5.00625H5.07336V2.88375H2.38086V6.73125H15.6184V2.88375H12.5509Z" fill="white"/>
<path fill-rule="evenodd" clip-rule="evenodd" d="M6.48336 12.1387V13.2637H5.35836L5.35086 12.1387H6.48336ZM6.48336 9.44625V10.5712H5.35836L5.35086 9.44625H6.48336ZM9.56586 12.1387V13.2637H8.44086L8.43336 12.1387H9.56586ZM9.56586 9.44625V10.5712H8.44086L8.43336 9.44625H9.56586ZM12.6484 12.1387V13.2637H11.5234L11.5159 12.1387H12.6484ZM12.6484 9.44625V10.5712H11.5234L11.5159 9.44625H12.6484ZM2.38086 16.4062H15.6184V7.85625H2.38086V16.4062Z" fill="white"/>
</svg>
