<svg width="24" height="24" viewBox="0 0 24 24" fill="none" xmlns="http://www.w3.org/2000/svg">
<path fill-rule="evenodd" clip-rule="evenodd" d="M16.735 3.845V2.125H15.235V6.675H14.235V3.845H9.26505V2.125H7.76505V6.675H6.76505V3.845H3.17505V8.975H20.825V3.845H16.735Z" fill="#424242"/>
<path fill-rule="evenodd" clip-rule="evenodd" d="M8.64505 16.185V17.685H7.14505L7.13505 16.185H8.64505ZM8.64505 12.595V14.095H7.14505L7.13505 12.595H8.64505ZM12.755 16.185V17.685H11.255L11.245 16.185H12.755ZM12.755 12.595V14.095H11.255L11.245 12.595H12.755ZM16.865 16.185V17.685H15.365L15.355 16.185H16.865ZM16.865 12.595V14.095H15.365L15.355 12.595H16.865ZM3.17505 21.875H20.825V10.475H3.17505V21.875Z" fill="#424242"/>
</svg>
