<svg width="350" height="48" viewBox="0 0 350 48" fill="none" xmlns="http://www.w3.org/2000/svg">
<rect x="0.5" y="0.5" width="349" height="47" rx="7.5" fill="#131314"/>
<rect x="0.5" y="0.5" width="349" height="47" rx="7.5" stroke="#8E918F"/>
<path fill-rule="evenodd" clip-rule="evenodd" d="M29.64 24.2042C29.64 23.566 29.5827 22.9524 29.4764 22.3633H21V25.8446H25.8436C25.635 26.9696 25.0009 27.9228 24.0477 28.561V30.8192H26.9564C28.6582 29.2524 29.64 26.9451 29.64 24.2042Z" fill="#4285F4"/>
<path fill-rule="evenodd" clip-rule="evenodd" d="M20.9998 33C23.4298 33 25.467 32.1941 26.9561 30.8195L24.0475 28.5613C23.2416 29.1013 22.2107 29.4204 20.9998 29.4204C18.6557 29.4204 16.6716 27.8372 15.9638 25.71H12.957V28.0418C14.4379 30.9831 17.4816 33 20.9998 33Z" fill="#34A853"/>
<path fill-rule="evenodd" clip-rule="evenodd" d="M15.9641 25.7098C15.7841 25.1698 15.6818 24.593 15.6818 23.9998C15.6818 23.4066 15.7841 22.8298 15.9641 22.2898V19.958H12.9573C12.3477 21.173 12 22.5476 12 23.9998C12 25.4521 12.3477 26.8266 12.9573 28.0416L15.9641 25.7098Z" fill="#FBBC05"/>
<path fill-rule="evenodd" clip-rule="evenodd" d="M20.9998 18.5795C22.3211 18.5795 23.5075 19.0336 24.4402 19.9255L27.0216 17.3441C25.4629 15.8918 23.4257 15 20.9998 15C17.4816 15 14.4379 17.0168 12.957 19.9582L15.9638 22.29C16.6716 20.1627 18.6557 18.5795 20.9998 18.5795Z" fill="#EA4335"/>
<path d="M153.188 18.262H161.098V19.2H153.188V18.262ZM151.76 23.694H163.198V24.646H151.76V23.694ZM156.87 24.324H158.032V30.106H156.87V24.324ZM160.552 18.262H161.686V19.354C161.686 20.67 161.686 22.154 161.21 24.296L160.062 24.142C160.552 22.098 160.552 20.628 160.552 19.354V18.262ZM166.094 17.968H174.242V18.906H166.094V17.968ZM164.638 22.14H176.104V23.092H164.638V22.14ZM173.486 17.968H174.62V18.78C174.62 19.69 174.62 20.866 174.284 22.434L173.15 22.308C173.486 20.768 173.486 19.676 173.486 18.78V17.968ZM165.982 24.338H174.662V27.558H167.172V29.322H166.01V26.662H173.514V25.276H165.982V24.338ZM166.01 29.014H174.984V29.952H166.01V29.014ZM181.004 27.572H192.47V28.538H181.004V27.572ZM186.128 24.856H187.29V27.978H186.128V24.856ZM182.39 18.374H191.056V22.21H183.58V24.744H182.432V21.272H189.908V19.312H182.39V18.374ZM182.432 24.254H191.35V25.206H182.432V24.254ZM195.115 18.78H203.263V19.718H195.115V18.78ZM193.883 27.278H205.321V28.244H193.883V27.278ZM202.647 18.78H203.781V20.04C203.781 21.664 203.781 23.47 203.305 26.2L202.143 26.088C202.647 23.498 202.647 21.608 202.647 20.04V18.78ZM215.96 17.45H217.136V26.69H215.96V17.45ZM209.002 28.86H217.514V29.812H209.002V28.86ZM209.002 25.738H210.15V29.182H209.002V25.738ZM210.346 18.318C212.236 18.318 213.636 19.606 213.636 21.44C213.636 23.26 212.236 24.562 210.346 24.562C208.456 24.562 207.042 23.26 207.042 21.44C207.042 19.606 208.456 18.318 210.346 18.318ZM210.346 19.326C209.114 19.326 208.176 20.194 208.176 21.44C208.176 22.672 209.114 23.54 210.346 23.54C211.578 23.54 212.516 22.672 212.516 21.44C212.516 20.194 211.578 19.326 210.346 19.326Z" fill="#E3E3E3"/>
</svg>
