<svg width="350" height="48" viewBox="0 0 350 48" fill="none" xmlns="http://www.w3.org/2000/svg">
<rect width="350" height="48.0001" rx="8" fill="#FEE500"/>
<path fill-rule="evenodd" clip-rule="evenodd" d="M32.0001 12.7998C25.3723 12.7998 20 16.9504 20 22.0696C20 25.2532 22.0779 28.0598 25.2421 29.7291L23.9107 34.5926C23.7931 35.0223 24.2846 35.3648 24.662 35.1158L30.4978 31.2641C30.9903 31.3117 31.4908 31.3394 32.0001 31.3394C38.6274 31.3394 44 27.1889 44 22.0696C44 16.9504 38.6274 12.7998 32.0001 12.7998Z" fill="black"/>
<path d="M149.812 18.6562C149.805 22.9219 148.641 26.5859 143.438 29.1719L142.484 27.8594C144.93 26.6562 146.391 25.2422 147.211 23.5703L142.812 23.9844L142.594 22.4844L147.734 22.1641C147.914 21.5 148.031 20.8047 148.086 20.0625H143.328V18.6562H149.812ZM151.797 31.3594V17.2656H153.531V22.7969H155.625V24.2188H153.531V31.3594H151.797ZM163.641 18.6562C163.633 22.9219 162.469 26.5859 157.266 29.1719L156.312 27.8594C158.758 26.6562 160.219 25.2422 161.039 23.5703L156.641 23.9844L156.422 22.4844L161.562 22.1641C161.742 21.5 161.859 20.8047 161.914 20.0625H157.156V18.6562H163.641ZM165.625 31.3594V17.2656H167.359V22.7969H169.453V24.2188H167.359V31.3594H165.625ZM176.547 18.0625C179.578 18.0703 181.82 19.5781 181.812 21.875C181.82 23.9922 180 25.4062 177.406 25.6641V28.25H183.031V29.6719H170.125V28.25H175.688V25.6641C173.125 25.4062 171.305 23.9922 171.312 21.875C171.305 19.5781 173.539 18.0703 176.547 18.0625ZM173.016 21.875C173.008 23.3984 174.484 24.3125 176.547 24.3125C178.641 24.3125 180.109 23.3984 180.109 21.875C180.109 20.3984 178.641 19.4609 176.547 19.4688C174.484 19.4609 173.008 20.3984 173.016 21.875ZM200.656 28.3125V29.75H187.75V28.3125H193.312V26.0156H189.281V21.3906H197.406V19.6406H189.25V18.2344H199.125V22.7656H191.016V24.5938H199.453V26.0156H195.031V28.3125H200.656ZM212.812 18.6406V20.2344C212.812 22.125 212.812 24.0703 212.297 27.0469L210.531 26.8906C211.078 24.1172 211.078 22.0703 211.078 20.2344V20.0469H202.938V18.6406H212.812ZM201.578 29.4531V28.0312H214.453V29.4531H201.578ZM227.172 17.2812V27.4844H225.422V17.2812H227.172ZM215.656 21.7344C215.656 19.6797 217.32 18.2109 219.469 18.2031C221.617 18.2109 223.273 19.6797 223.266 21.7344C223.273 23.8203 221.617 25.2812 219.469 25.2812C217.32 25.2812 215.656 23.8203 215.656 21.7344ZM217.359 21.7344C217.352 22.9844 218.258 23.7656 219.469 23.7656C220.648 23.7656 221.562 22.9844 221.562 21.7344C221.562 20.5156 220.648 19.7188 219.469 19.7188C218.258 19.7188 217.352 20.5156 217.359 21.7344ZM217.828 31.1094V26.4531H219.578V29.7031H227.562V31.1094H217.828Z" fill="black" fill-opacity="0.85"/>
</svg>
