<svg width="118" height="36" viewBox="0 0 118 36" fill="none" xmlns="http://www.w3.org/2000/svg">
<path d="M1.7315 27.704V23.4959H11.0902L11.0901 19.6368H1.73145L1.7315 9.40958H6.23147V15.955H24.7192L24.7191 19.6368H15.3604L15.3605 23.4959H20.1295H27.1144V27.704H1.7315ZM1.7315 6.66323V2.45508H24.7192V9.40958H6.23147V6.66323H1.7315Z" fill="#75FFBF"/>
<path d="M27.1144 23.4959V6.66323H33.8392V23.4959H27.1144ZM33.8392 23.4959H41.5616V27.704H33.8392V23.4959ZM33.8392 6.66323V2.45508H41.5616V6.66323H33.8392ZM41.5616 23.4959V6.66323H45.8319V23.4959H41.5616ZM49.2839 27.704V2.45508H53.5542V15.0795H57.0063V19.2877H53.5542V27.704H49.2839Z" fill="#75FFBF"/>
<path d="M59.9101 27.704V2.45508H64.1803V10.8714H71.0845V2.45508H75.3548V27.704H59.9101ZM64.1803 23.4959H71.0845V15.0795H64.1803V23.4959ZM79.625 27.704V2.45508H83.5492V15.0795H87.3474V19.2877H83.5492V27.704H79.625Z" fill="#75FFBF"/>
<path d="M89.6855 27.704V2.45508H93.9558V10.8714H100.86V2.45508H105.13V27.704H89.6855ZM93.9558 23.4959H100.86V15.0795H93.9558V23.4959ZM109.4 27.704V2.45508H113.671V15.0795H117.941V19.2877H113.671V27.704H109.4Z" fill="#75FFBF"/>
<rect x="27.0947" width="2.45453" height="35.9998" fill="black"/>
<rect x="5.82227" y="9" width="18.8181" height="4.09088" fill="#75FFBF"/>
<rect x="1.73145" y="6.5459" width="18.8181" height="3.27271" fill="black"/>
<rect x="20.5488" width="6.54541" height="6.54541" fill="black"/>
<rect x="0.0947266" y="15.5459" width="6.54541" height="6.54541" fill="black"/>
</svg>
